<svg xmlns="http://www.w3.org/2000/svg" version="1.1" xmlns:xlink="http://www.w3.org/1999/xlink" xmlns:svgjs="http://svgjs.dev/svgjs" width="1500" height="1687" viewBox="0 0 1500 1687" fill="#fff"><g transform="matrix(1,0,0,1,0.00017343749982501322,0)"><svg viewBox="0 0 320 360" data-background-color="#ffffff" preserveAspectRatio="xMidYMid meet" height="1687" width="1500" xmlns="http://www.w3.org/2000/svg" xmlns:xlink="http://www.w3.org/1999/xlink"><g id="tight-bounds" transform="matrix(1,0,0,1,-0.0000369999999634274,0)"><svg viewBox="0 0 320 360" height="360" width="320"><g><svg></svg></g><g><svg viewBox="0 0 320 360" height="360" width="320"><g><path transform="translate(-29.57346,-9.38389) scale(3.79147,3.79147)" d="M50 13.6c19.1 0 34.8 14.8 36.3 33.5h5.9c-0.3-4.7-1.4-9.2-3.2-13.5-2.1-5-5.2-9.6-9.1-13.4-3.9-3.9-8.4-6.9-13.4-9.1-5.3-2.2-10.8-3.4-16.5-3.4-5.7 0-11.2 1.1-16.5 3.3-5 2.1-9.6 5.2-13.4 9.1-3.9 3.9-6.9 8.4-9.1 13.4-1.8 4.3-2.9 8.9-3.2 13.5h5.9c1.5-18.6 17.2-33.4 36.3-33.4zM50 86.4c-19.1 0-34.8-14.8-36.3-33.5h-5.9c0.3 4.7 1.4 9.2 3.2 13.5 2.1 5 5.2 9.6 9.1 13.4 3.9 3.9 8.4 6.9 13.4 9.1 5.2 2.2 10.7 3.3 16.5 3.3 5.8 0 11.2-1.1 16.5-3.3 5-2.1 9.6-5.2 13.4-9.1 3.9-3.9 6.9-8.4 9.1-13.4 1.8-4.3 2.9-8.9 3.2-13.5h-5.9c-1.5 18.7-17.2 33.5-36.3 33.5z" fill="#fff" fill-rule="nonzero" stroke="none" stroke-width="1" stroke-linecap="butt" stroke-linejoin="miter" stroke-miterlimit="10" stroke-dasharray="" stroke-dashoffset="0" font-family="none" font-weight="none" font-size="none" text-anchor="none" style="mix-blend-mode: normal" data-fill-palette-color="tertiary"></path></g><g transform="matrix(1,0,0,1,56,97.76426118424831)"><svg viewBox="0 0 208 164.47147763150338" height="164.47147763150338" width="208"><g><svg viewBox="0 0 208 164.47147763150338" height="164.47147763150338" width="208"><g transform="matrix(1,0,0,1,0,104.41563184895978)"><svg viewBox="0 0 208 60.05584578254361" height="60.05584578254361" width="208"><g id="textblocktransform"><svg viewBox="0 0 208 60.05584578254361" height="60.05584578254361" width="208" id="textblock"><g><svg viewBox="0 0 208 60.05584578254361" height="60.05584578254361" width="208"><g transform="matrix(1,0,0,1,0,0)"><svg width="208" viewBox="1.710588348457 -35.18 122.929411651543 35.5" height="60.05584578254361" data-palette-color="#000000"><path d="M10.62 0.32L10.62 0.32Q6.03 0.32 3.98-1.14 1.93-2.59 1.81-5.93L1.81-5.93Q1.68-7.79 1.72-9.3 1.76-10.82 1.88-12.7L1.88-12.7 5.18-12.7Q5.03-10.82 5.04-8.96 5.05-7.1 5.18-5.37L5.18-5.37Q5.3-3.96 6.52-3.28 7.74-2.61 10.55-2.61L10.55-2.61Q13.31-2.61 14.47-3.28 15.63-3.96 15.77-5.37L15.77-5.37Q15.89-7.1 15.88-8.39 15.87-9.67 15.77-11.57L15.77-11.57Q15.67-13.09 14.98-14.11 14.28-15.14 11.89-15.45L11.89-15.45 8.4-16.09Q5.64-16.55 4.26-17.44 2.88-18.33 2.38-19.74 1.88-21.14 1.78-23.17L1.78-23.17Q1.71-24.51 1.73-26.04 1.76-27.56 1.83-29L1.83-29Q1.88-32.32 3.87-33.75 5.86-35.18 10.55-35.18L10.55-35.18Q14.87-35.18 16.83-33.74 18.8-32.3 18.92-28.98L18.92-28.98Q18.99-27.83 18.97-26.14 18.95-24.44 18.87-22.63L18.87-22.63 15.55-22.63Q15.72-24.37 15.72-26.1 15.72-27.83 15.6-29.54L15.6-29.54Q15.5-30.93 14.32-31.59 13.13-32.25 10.47-32.25L10.47-32.25Q7.71-32.25 6.53-31.59 5.35-30.93 5.22-29.54L5.22-29.54Q5.1-27.98 5.11-26.37 5.13-24.76 5.22-23.17L5.22-23.17Q5.32-21.39 5.99-20.45 6.67-19.51 9.18-19.21L9.18-19.21 12.6-18.68Q15.36-18.26 16.75-17.33 18.14-16.41 18.64-14.98 19.14-13.55 19.21-11.57L19.21-11.57Q19.34-9.77 19.31-8.64 19.29-7.52 19.17-5.93L19.17-5.93Q18.99-2.59 17-1.14 15.01 0.32 10.62 0.32ZM31.52 0.32L31.52 0.32Q26.93 0.32 24.88-1.14 22.82-2.59 22.7-5.93L22.7-5.93Q22.58-7.79 22.62-9.3 22.65-10.82 22.78-12.7L22.78-12.7 26.07-12.7Q25.93-10.82 25.94-8.96 25.95-7.1 26.07-5.37L26.07-5.37Q26.19-3.96 27.41-3.28 28.64-2.61 31.44-2.61L31.44-2.61Q34.2-2.61 35.36-3.28 36.52-3.96 36.67-5.37L36.67-5.37Q36.79-7.1 36.78-8.39 36.77-9.67 36.67-11.57L36.67-11.57Q36.57-13.09 35.87-14.11 35.18-15.14 32.79-15.45L32.79-15.45 29.29-16.09Q26.54-16.55 25.16-17.44 23.78-18.33 23.28-19.74 22.78-21.14 22.68-23.17L22.68-23.17Q22.6-24.51 22.63-26.04 22.65-27.56 22.73-29L22.73-29Q22.78-32.32 24.77-33.75 26.76-35.18 31.44-35.18L31.44-35.18Q35.76-35.18 37.73-33.74 39.69-32.3 39.82-28.98L39.82-28.98Q39.89-27.83 39.87-26.14 39.84-24.44 39.77-22.63L39.77-22.63 36.45-22.63Q36.62-24.37 36.62-26.1 36.62-27.83 36.5-29.54L36.5-29.54Q36.4-30.93 35.21-31.59 34.03-32.25 31.37-32.25L31.37-32.25Q28.61-32.25 27.43-31.59 26.24-30.93 26.12-29.54L26.12-29.54Q26-27.98 26.01-26.37 26.02-24.76 26.12-23.17L26.12-23.17Q26.22-21.39 26.89-20.45 27.56-19.51 30.08-19.21L30.08-19.21 33.49-18.68Q36.25-18.26 37.64-17.33 39.04-16.41 39.54-14.98 40.04-13.55 40.11-11.57L40.11-11.57Q40.23-9.77 40.21-8.64 40.18-7.52 40.06-5.93L40.06-5.93Q39.89-2.59 37.9-1.14 35.91 0.32 31.52 0.32ZM47.43-13.21L47.43 0 44.04 0 44.04-34.86 52.27-34.86Q56.68-34.86 58.71-33.45 60.74-32.03 60.96-28.76L60.96-28.76Q61.2-26.03 61.2-23.83 61.2-21.63 60.96-19.31L60.96-19.31Q60.74-16.06 58.7-14.64 56.66-13.21 52.17-13.21L52.17-13.21 47.43-13.21ZM52.27-31.74L47.43-31.74 47.43-16.33 52.17-16.33Q55-16.33 56.23-17.03 57.47-17.72 57.59-19.17L57.59-19.17Q57.95-24.02 57.59-28.93L57.59-28.93Q57.47-30.37 56.25-31.05 55.02-31.74 52.27-31.74L52.27-31.74ZM70.11 0.27L70.11 0.27Q67.13 0.27 65.7-0.9 64.27-2.08 64.03-4.57L64.03-4.57Q64.01-5.05 63.97-5.54 63.93-6.03 63.98-6.49L63.98-6.49Q64.15-8.67 65.35-10.14 66.55-11.62 69.89-12.84L69.89-12.84Q71.26-13.33 72.77-13.72 74.28-14.11 75.77-14.48L75.77-14.48 75.77-18.99Q75.77-20.19 74.87-20.76 73.97-21.34 71.72-21.34L71.72-21.34Q69.77-21.34 68.75-20.85 67.74-20.36 67.64-19.07L67.64-19.07Q67.6-18.46 67.6-17.32 67.6-16.19 67.64-15.41L67.64-15.41 64.59-15.41Q64.54-16.02 64.49-16.99 64.45-17.97 64.52-18.73L64.52-18.73Q64.64-21.56 66.36-22.81 68.08-24.07 71.84-24.07L71.84-24.07Q75.77-24.07 77.3-22.71 78.83-21.34 78.85-18.21L78.85-18.21 78.85 0 75.77 0 75.77-2.25 75.09-2.25Q74.48-1.03 73.34-0.38 72.21 0.27 70.11 0.27ZM70.89-2.37L70.89-2.37Q74.41-2.37 75.75-4.47L75.75-4.47 75.75-11.87Q74.58-11.62 73.34-11.29 72.11-10.96 70.45-10.4L70.45-10.4Q68.47-9.67 67.81-8.72 67.16-7.76 67.06-6.49L67.06-6.49Q67.08-6.13 67.09-5.7 67.11-5.27 67.16-4.81L67.16-4.81Q67.33-3.64 68.33-3 69.33-2.37 70.89-2.37ZM86.49-19.19L86.49 0 83.34 0 83.34-23.75 86.49-23.75 86.49-21.53 87.25-21.53Q88-22.75 89.24-23.41 90.47-24.07 92.35-24.07L92.35-24.07Q95.11-24.07 96.45-22.86 97.79-21.66 97.79-18.82L97.79-18.82 97.79 0 94.67 0 94.67-19.09Q94.67-20.31 93.9-20.86 93.13-21.41 91.42-21.41L91.42-21.41Q89.71-21.41 88.42-20.83 87.12-20.24 86.49-19.19L86.49-19.19ZM109.58 0.29L109.58 0.29Q105.55 0.29 103.83-0.98 102.11-2.25 101.99-5.13L101.99-5.13Q101.89-6.93 101.86-9.38 101.82-11.82 101.86-14.28 101.89-16.75 101.99-18.58L101.99-18.58Q102.11-21.53 103.88-22.8 105.65-24.07 109.58-24.07L109.58-24.07Q113.29-24.07 114.95-22.83 116.61-21.58 116.78-18.73L116.78-18.73Q116.83-17.87 116.88-15.75 116.93-13.62 116.74-11.23L116.74-11.23 105.04-11.23Q105.04-9.69 105.07-8.11 105.09-6.52 105.16-4.81L105.16-4.81Q105.19-3.47 106.19-2.95 107.19-2.44 109.48-2.44L109.48-2.44Q111.76-2.44 112.68-2.95 113.61-3.47 113.71-4.81L113.71-4.81Q113.78-6.15 113.71-8.47L113.71-8.47 116.74-8.47Q116.86-7.76 116.85-6.82 116.83-5.88 116.78-5.13L116.78-5.13Q116.61-2.25 115.04-0.98 113.46 0.29 109.58 0.29ZM105.04-13.82L105.04-13.82 113.76-13.82Q113.81-15.48 113.81-16.99 113.81-18.51 113.71-19.07L113.71-19.07Q113.61-20.29 112.66-20.81 111.71-21.34 109.58-21.34L109.58-21.34Q107.21-21.34 106.2-20.81 105.19-20.29 105.16-19.07L105.16-19.07Q105.09-17.65 105.05-16.36 105.02-15.06 105.04-13.82ZM124.64-31.69L124.64 0 121.47 0 121.47-31.69 124.64-31.69Z" opacity="1" transform="matrix(1,0,0,1,0,0)" fill="#fff" class="wordmark-text-0" data-fill-palette-color="primary" id="text-0"></path></svg></g></svg></g></svg></g></svg></g><g transform="matrix(1,0,0,1,58.881055999999994,0)"><svg viewBox="0 0 90.23788800000001 90.23788800000001" height="90.23788800000001" width="90.23788800000001"><g><svg></svg></g><g id="icon-0"><svg viewBox="0 0 90.23788800000001 90.23788800000001" height="90.23788800000001" width="90.23788800000001"><g><rect width="82.04963520000001" height="82.04963520000001" x="4.0941264" y="4.0941264" fill="#fff" data-fill-palette-color="accent"></rect><rect width="82.04963520000001" height="82.04963520000001" x="8.881784197001252e-16" y="8.1882528" fill="#000000" opacity="0.5" data-fill-palette-color="accent"></rect></g><g transform="matrix(1,0,0,1,11.697504000000002,17.41628373333334)"><svg viewBox="0 0 66.84288000000001 55.40532053333333" height="55.40532053333333" width="66.84288000000001"><g><svg xmlns="http://www.w3.org/2000/svg" xmlns:xlink="http://www.w3.org/1999/xlink" version="1.1" x="0" y="0" viewBox="5 12.700000000000001 90 74.6" style="enable-background:new 0 0 100 100;" xml:space="preserve" height="55.40532053333333" width="66.84288000000001" class="icon-cg-0" data-fill-palette-color="quaternary" id="cg-0"><path d="M5 20.1l7.4-7.4 26.1 26.1 7.5 7.4-7.5 7.4L12.4 79.7 5 72.3l26.1-26.1L5 20.1zM95 87.3V75.7H48.8v11.6H95z" fill="#ffffff" data-fill-palette-color="quaternary"></path></svg></g></svg></g></svg></g></svg></g><g></g></svg></g></svg></g></svg></g><defs></defs></svg><rect width="320" height="360" fill="#fff" stroke="none" visibility="hidden"></rect></g></svg></g></svg>